<svg width="16" height="16" viewBox="0 0 16 16" fill="none" xmlns="http://www.w3.org/2000/svg">
<path d="M4.715 6.542L3.343 7.914C2.78035 8.47666 2.46425 9.23978 2.46425 10.0355C2.46425 10.8312 2.78035 11.5943 3.343 12.157C3.90566 12.7197 4.66879 13.0358 5.4645 13.0358C6.26022 13.0358 7.02335 12.7197 7.586 12.157L9.414 10.328C9.7533 9.98866 10.0062 9.57287 10.1516 9.11555C10.2969 8.65822 10.3305 8.1727 10.2494 7.69974C10.1682 7.22677 9.97486 6.78016 9.68543 6.3974C9.396 6.01464 9.01898 5.7069 8.586 5.5L8 6.086C7.9405 6.14559 7.88876 6.21245 7.846 6.285C8.18053 6.38117 8.48417 6.56298 8.7269 6.81246C8.96963 7.06194 9.14304 7.37044 9.23 7.70748C9.31696 8.04452 9.31446 8.39842 9.22273 8.73419C9.13101 9.06996 8.95324 9.37598 8.707 9.622L6.88 11.45C6.50472 11.8253 5.99573 12.0361 5.465 12.0361C4.93427 12.0361 4.42528 11.8253 4.05 11.45C3.67472 11.0747 3.46389 10.5657 3.46389 10.035C3.46389 9.50427 3.67472 8.99528 4.05 8.62L4.843 7.828C4.73112 7.40873 4.68789 6.9741 4.715 6.541V6.542Z" fill="#3F3F9D"/>
<path d="M5.712 6.96001L5.879 6.79301C6.12676 6.54434 6.43588 6.36563 6.775 6.27501C6.86562 5.93589 7.04433 5.62677 7.293 5.37901L7.46 5.21201C6.95697 5.18373 6.4549 5.28242 6 5.49901C5.78 5.95901 5.684 6.46201 5.712 6.95901V6.96001Z" fill="#3F3F9D"/>
<path d="M6.586 4.67202C6.24671 5.01137 5.99377 5.42715 5.84841 5.88448C5.70306 6.3418 5.66953 6.82733 5.75064 7.30029C5.83176 7.77325 6.02514 8.21986 6.31457 8.60262C6.604 8.98538 6.98103 9.29313 7.414 9.50002L8.189 8.72402C7.84995 8.63308 7.54081 8.4545 7.29264 8.20623C7.04447 7.95795 6.86602 7.64874 6.77521 7.30965C6.68441 6.97056 6.68446 6.61354 6.77535 6.27447C6.86624 5.93541 7.04477 5.62623 7.293 5.37802L9.12 3.55002C9.49528 3.17474 10.0043 2.96391 10.535 2.96391C11.0657 2.96391 11.5747 3.17474 11.95 3.55002C12.3253 3.92531 12.5361 4.4343 12.5361 4.96503C12.5361 5.49575 12.3253 6.00474 11.95 6.38002L11.157 7.17202C11.269 7.59202 11.312 8.02702 11.285 8.45902L12.657 7.08702C13.2197 6.52437 13.5358 5.76124 13.5358 4.96552C13.5358 4.16981 13.2197 3.40668 12.657 2.84403C12.0943 2.28137 11.3312 1.96527 10.5355 1.96527C9.73979 1.96527 8.97666 2.28137 8.414 2.84403L6.586 4.67202Z" fill="#3F3F9D"/>
<path d="M10 9.50004C10.2175 9.04542 10.3166 8.5432 10.288 8.04004L10.121 8.20704C9.87325 8.45571 9.56413 8.63442 9.225 8.72504C9.13438 9.06416 8.95567 9.37329 8.707 9.62104L8.54 9.78804C9.04303 9.81632 9.5451 9.71763 10 9.50104V9.50004Z" fill="#3F3F9D"/>
</svg>
