<?xml version="1.0" standalone="no"?>
<!DOCTYPE svg PUBLIC "-//W3C//DTD SVG 20010904//EN"
 "http://www.w3.org/TR/2001/REC-SVG-20010904/DTD/svg10.dtd">
<svg version="1.0" xmlns="http://www.w3.org/2000/svg"
 width="512.000000pt" height="512.000000pt" viewBox="0 0 512.000000 512.000000"
 preserveAspectRatio="xMidYMid meet">
<metadata>
Created by potrace 1.14, written by Peter Selinger 2001-2017
</metadata>
<g transform="translate(0.000000,512.000000) scale(0.100000,-0.100000)"
fill="#000000" stroke="none">
<path d="M1925 4568 c-22 -6 -49 -14 -60 -19 -11 -4 -29 -10 -40 -14 -43 -13
-86 -61 -92 -103 -9 -68 20 -75 256 -59 46 3 85 8 88 11 2 2 19 0 36 -4 18 -5
61 -8 97 -6 38 1 73 -3 85 -10 11 -6 28 -10 37 -9 10 2 20 0 23 -5 9 -14 -80
-21 -129 -10 -26 6 -100 11 -164 11 -102 1 -162 -5 -286 -26 -54 -9 -213 -63
-238 -81 -7 -5 -31 -18 -53 -28 -109 -53 -225 -166 -225 -220 0 -24 25 -30 61
-16 47 20 46 4 -3 -21 -23 -12 -52 -30 -63 -41 -11 -10 -48 -43 -82 -74 -33
-30 -78 -79 -98 -108 -33 -48 -36 -58 -33 -112 3 -55 5 -59 28 -62 19 -2 40
12 83 53 32 30 62 55 67 55 6 0 9 4 7 9 -3 12 105 105 160 138 53 31 73 26 39
-10 -41 -44 -91 -121 -93 -142 -2 -26 -7 -48 -14 -60 -7 -12 31 -87 47 -92 6
-2 33 19 60 47 27 28 74 67 106 87 31 20 61 46 67 59 6 13 16 24 22 24 7 0 5
-8 -5 -22 -9 -13 -26 -42 -38 -66 -12 -26 -37 -54 -59 -68 -22 -13 -39 -31
-39 -40 0 -8 -4 -13 -9 -9 -12 7 -10 -36 2 -52 11 -15 -10 -18 -32 -4 -23 15
-70 -22 -222 -173 -168 -169 -248 -255 -266 -291 -8 -14 -18 -25 -23 -25 -6 0
-10 -6 -10 -14 0 -7 -8 -24 -18 -37 -24 -30 -92 -158 -92 -171 0 -10 -48 -126
-75 -183 -24 -51 -112 -361 -107 -378 1 -4 -3 -17 -9 -28 -6 -12 -12 -34 -14
-49 -2 -16 -9 -57 -16 -92 -15 -82 -16 -402 -1 -448 6 -19 13 -57 16 -85 4
-48 43 -199 74 -285 3 -8 6 -19 7 -25 3 -19 18 -50 33 -68 9 -10 17 -27 19
-38 6 -40 90 -173 146 -231 9 -10 17 -20 17 -23 0 -13 183 -189 214 -206 19
-10 45 -28 59 -41 14 -13 38 -30 54 -38 15 -8 34 -19 42 -24 7 -6 19 -11 26
-12 32 -5 85 -26 85 -35 0 -5 9 -9 19 -9 11 0 22 -4 25 -9 4 -5 30 -12 59 -16
28 -3 68 -11 87 -18 42 -13 47 -14 132 -25 37 -4 87 -7 110 -6 24 1 47 -1 53
-4 26 -16 244 8 367 41 60 16 91 20 98 13 7 -7 10 -7 10 1 0 6 10 11 23 11 36
1 121 13 137 19 8 3 18 6 22 5 3 -1 12 5 18 13 7 8 19 15 26 15 22 0 121 50
140 71 9 10 25 19 34 19 10 0 23 7 30 15 7 8 16 15 21 15 4 0 19 10 33 23 13
12 36 31 51 42 15 11 47 38 70 60 24 22 66 60 94 85 95 83 245 230 235 230 -5
0 -1 5 9 11 9 5 17 16 17 23 0 8 18 36 40 62 22 27 40 55 40 62 0 7 7 21 16
29 13 14 20 14 36 4 11 -7 22 -10 25 -7 3 3 14 1 24 -5 22 -11 55 13 60 46 3
13 26 31 65 50 75 37 109 62 201 154 77 77 137 167 154 234 14 53 19 146 9
152 -5 3 -6 14 -3 25 4 13 19 24 47 31 108 28 152 42 166 53 8 7 33 21 55 31
22 11 79 59 126 106 88 88 144 169 168 245 14 45 10 120 -9 151 -9 15 -5 31
24 89 44 89 73 175 82 242 3 29 11 52 16 52 14 0 171 104 187 124 8 9 28 16
47 16 50 0 114 37 114 65 0 40 -67 142 -114 174 -51 35 -175 71 -245 71 -62 0
-81 7 -81 31 0 10 -10 23 -21 30 -33 17 -68 61 -69 85 -1 67 -298 271 -485
334 -33 11 -83 23 -112 26 -51 6 -53 8 -70 53 -21 54 -79 167 -96 187 -97 118
-130 126 -186 45 -13 -18 -36 -65 -51 -103 l-27 -70 -34 59 c-42 72 -61 115
-55 121 3 2 0 14 -6 26 -7 11 -13 27 -14 35 -2 8 -12 27 -24 43 -11 16 -18 33
-15 38 3 5 0 22 -8 37 -8 15 -17 44 -21 63 -6 31 -59 100 -78 100 -4 0 -19
-12 -33 -27 -26 -27 -26 -31 -21 -120 5 -86 -4 -120 -19 -73 -3 11 -13 20 -21
20 -8 0 -22 8 -32 18 -24 22 -62 45 -137 81 -148 71 -231 101 -345 126 -41 9
-115 25 -165 37 -103 23 -411 33 -480 16z m475 -242 c0 -8 -4 -18 -10 -21 -5
-3 -10 3 -10 14 0 12 5 21 10 21 6 0 10 -6 10 -14z m66 -11 c4 -8 10 -12 15
-9 5 3 9 1 9 -5 0 -5 -4 -13 -10 -16 -5 -3 -10 -1 -10 5 0 7 -6 10 -13 7 -8
-3 -14 3 -14 14 -2 23 15 25 23 4z m-91 -44 c3 -5 0 -13 -6 -17 -7 -4 -9 -3
-5 4 3 5 0 13 -6 15 -9 4 -10 6 -1 6 6 1 14 -3 18 -8z m55 3 c0 -8 -19 -13
-24 -6 -3 5 1 9 9 9 8 0 15 -2 15 -3z m-234 -89 c-8 -8 -18 -15 -22 -15 -3 0
-1 7 6 15 7 8 17 15 22 15 5 0 3 -7 -6 -15z m-31 -56 c-6 -19 -4 -21 19 -15
15 4 26 2 26 -4 0 -18 -56 -11 -74 9 -17 18 -17 19 1 24 32 8 34 7 28 -14z
m45 11 c-19 -13 -30 -13 -30 0 0 6 10 10 23 10 18 0 19 -2 7 -10z m50 0 c0 -5
-5 -10 -11 -10 -5 0 -7 5 -4 10 3 6 8 10 11 10 2 0 4 -4 4 -10z m-502 -38
c-13 -6 -38 6 -38 17 0 6 7 8 15 5 9 -4 15 0 16 7 0 8 4 5 8 -6 5 -11 4 -22
-1 -23z m1 -26 c7 -8 8 -17 3 -19 -4 -3 -13 3 -20 14 -14 22 0 26 17 5z m61
-26 c5 0 10 -4 10 -9 0 -5 -9 -7 -20 -4 -14 4 -20 13 -19 32 0 25 0 25 9 4 5
-13 14 -23 20 -23z m350 33 c0 -1 -8 -7 -18 -12 -14 -7 -19 -6 -19 4 0 7 9 13
19 12 10 -1 18 -2 18 -4z m1443 -100 c9 -21 19 -58 23 -83 4 -25 8 -47 9 -50
9 -43 18 -118 20 -170 2 -72 11 -100 30 -100 7 0 18 -7 25 -15 17 -21 57 -19
95 5 37 23 46 51 35 110 -4 22 -5 42 -3 44 19 18 205 -38 286 -86 79 -47 132
-82 135 -90 2 -5 10 -8 18 -8 8 0 14 -4 14 -9 0 -6 13 -18 29 -27 22 -13 32
-28 36 -56 4 -21 11 -40 16 -44 19 -11 9 -44 -13 -46 -34 -2 -40 -3 -83 -17
-120 -40 -87 -108 43 -90 35 5 68 11 73 15 17 10 279 6 314 -6 44 -15 46 -32
3 -19 -45 13 -237 13 -270 0 -20 -8 -27 -18 -30 -43 -4 -39 11 -75 32 -81 9
-2 42 -2 75 1 115 9 235 0 235 -17 0 -8 -68 -71 -78 -71 -3 0 -20 -11 -38 -25
-18 -14 -42 -25 -54 -25 -52 0 -63 -18 -74 -130 -15 -138 -142 -380 -259 -492
-55 -52 -249 -111 -385 -117 -25 -1 -39 5 -53 23 -14 18 -36 27 -86 36 -170
30 -299 91 -497 237 -32 24 -68 52 -80 62 -61 56 -84 76 -113 98 -18 14 -33
30 -33 36 0 6 -7 18 -15 27 -19 21 -45 119 -45 169 0 43 44 411 62 514 6 37
17 72 25 78 7 6 13 16 13 22 0 23 105 108 173 141 98 46 136 60 144 52 3 -3
12 -1 20 6 7 6 15 9 18 7 2 -3 5 -38 6 -79 1 -41 5 -82 9 -90 5 -9 25 -21 46
-29 37 -13 38 -13 61 15 21 27 22 35 19 159 -4 118 0 162 20 263 8 43 27 41
47 -5z m-1660 -8 c-3 -9 -8 -14 -10 -11 -3 3 -2 9 2 15 9 16 15 13 8 -4z
m1477 -30 c-7 -9 -15 -13 -17 -11 -7 7 7 26 19 26 6 0 6 -6 -2 -15z m-1470
-29 c0 -2 -8 -10 -17 -17 -16 -13 -17 -12 -4 4 13 16 21 21 21 13z m25 -389
c-72 -88 -77 -97 -85 -154 -4 -32 -11 -74 -15 -95 -6 -31 -4 -37 13 -42 11 -4
37 0 57 8 20 9 39 15 43 15 23 -4 44 4 69 25 15 12 34 21 40 19 7 -3 25 5 39
16 15 12 38 21 51 21 13 0 34 5 46 12 27 14 187 22 187 9 0 -6 16 -13 35 -17
19 -3 38 -10 41 -15 3 -5 16 -9 29 -9 13 0 27 -5 30 -10 4 -6 25 -9 47 -7 35
4 43 0 74 -32 28 -29 34 -44 34 -76 -1 -79 8 -171 25 -245 9 -41 18 -88 20
-104 3 -15 9 -33 14 -40 6 -7 4 -19 -8 -34 -13 -18 -23 -22 -44 -17 -15 4 -27
11 -27 16 0 5 -6 9 -13 9 -8 0 -22 9 -32 20 -10 11 -22 20 -28 20 -5 0 -22 11
-39 25 -32 27 -79 33 -96 13 -6 -7 -13 -30 -17 -51 -7 -33 -3 -43 33 -91 22
-29 67 -75 99 -102 32 -27 64 -55 71 -61 7 -7 17 -13 22 -13 4 0 13 -21 19
-47 7 -25 19 -60 28 -77 18 -35 101 -116 119 -116 7 0 14 -5 16 -11 7 -22 92
-22 138 0 50 24 50 24 50 11 0 -5 -14 -16 -30 -25 -44 -23 -81 -87 -76 -129 5
-41 45 -101 115 -173 28 -28 51 -61 51 -72 0 -12 5 -21 10 -21 6 0 10 -6 10
-14 0 -7 7 -19 15 -26 13 -11 13 -14 -2 -25 -10 -8 -15 -17 -11 -21 4 -4 3
-13 -3 -20 -22 -27 57 -84 117 -84 28 0 53 45 34 64 -19 19 -10 26 27 22 26
-4 43 1 62 15 21 17 27 18 36 6 6 -9 17 -11 30 -7 11 4 23 6 28 3 4 -2 10 3
13 11 3 9 12 16 19 16 15 0 59 43 61 59 1 6 2 15 3 21 1 6 28 7 74 2 39 -4
100 -7 135 -7 l62 0 6 -33 c16 -84 -22 -224 -75 -279 -11 -12 -21 -27 -21 -33
0 -5 -4 -10 -8 -10 -4 0 -53 -43 -107 -95 -71 -69 -103 -94 -114 -88 -9 4 -41
7 -71 8 -30 0 -65 6 -78 13 -37 21 -77 6 -118 -46 -44 -55 -266 -276 -313
-312 -48 -36 -205 -174 -209 -182 -2 -5 -10 -8 -17 -8 -8 0 -19 -9 -25 -20 -6
-11 -15 -20 -21 -20 -6 0 -18 -9 -27 -20 -26 -30 -110 -86 -182 -121 -126 -61
-147 -69 -166 -69 -12 0 -24 -3 -27 -6 -4 -4 -19 -8 -34 -10 -16 -1 -39 -6
-53 -10 -50 -13 -185 -21 -204 -12 -12 7 -21 7 -25 0 -4 -7 -20 -8 -45 -2 -21
4 -77 11 -125 15 -82 6 -106 13 -233 68 -27 11 -51 18 -54 14 -4 -3 -13 0 -21
8 -8 8 -23 15 -34 15 -20 0 -54 16 -77 38 -8 7 -27 16 -43 19 -16 3 -31 14
-34 24 -3 10 -15 21 -27 25 -11 3 -29 13 -40 23 -11 9 -28 23 -39 32 -11 9
-35 27 -54 40 -19 13 -35 27 -35 30 0 4 -32 40 -71 80 -39 41 -75 83 -80 94
-15 33 -33 60 -47 68 -6 4 -12 12 -12 16 0 5 -23 57 -52 117 -29 60 -53 116
-53 124 -1 8 -4 22 -7 30 -4 8 -9 24 -11 35 -3 11 -14 52 -25 90 -10 39 -20
90 -21 114 -1 25 -4 48 -7 52 -6 10 -5 228 1 269 3 19 8 49 10 65 3 27 10 61
15 75 1 3 2 9 1 14 -2 10 24 130 43 201 8 28 20 70 26 94 7 25 17 56 23 70 5
14 10 29 9 32 -1 3 17 42 40 85 22 43 53 104 68 134 16 31 52 91 81 135 53 82
209 278 215 272 2 -2 -2 -19 -8 -40 -10 -33 -9 -38 13 -56 56 -46 120 -73 182
-76 54 -3 68 1 122 30 33 19 60 38 60 43 0 5 9 25 20 45 19 36 19 37 -1 63
-11 15 -27 30 -35 34 -7 4 -23 12 -35 18 -37 19 -227 -3 -262 -31 -7 -5 -15
-7 -18 -4 -6 6 136 147 148 147 5 0 8 5 8 10 0 6 9 23 20 39 12 15 22 36 22
48 1 11 15 27 31 37 29 16 29 16 23 -6 -20 -67 -18 -83 9 -111 43 -42 70 -36
136 32 75 76 125 115 174 136 22 10 49 22 60 28 25 13 78 25 88 20 4 -3 -4
-19 -18 -36z m945 -830 c0 -13 46 -81 78 -116 14 -15 20 -31 16 -40 -3 -9 -7
-23 -8 -31 -5 -33 -26 -70 -51 -86 -23 -15 -27 -15 -49 -1 -37 25 -61 84 -60
152 1 68 3 77 30 122 14 24 22 29 31 21 7 -6 13 -15 13 -21z m1520 -316 c0
-19 -16 -48 -48 -89 -66 -83 -130 -135 -210 -173 -37 -18 -83 -42 -103 -54
-67 -43 -244 -60 -364 -36 -83 17 -186 49 -211 66 -11 7 -41 16 -66 20 -42 6
-46 5 -79 -31 -19 -20 -42 -45 -51 -55 -13 -14 -32 -19 -68 -19 -44 0 -55 5
-91 37 -59 53 -63 71 -26 113 17 19 36 35 41 36 6 0 29 9 51 19 22 10 43 17
47 17 4 -1 19 3 33 8 58 22 116 22 174 -1 31 -12 60 -26 66 -31 5 -4 20 -8 35
-9 14 0 43 -11 65 -24 22 -13 53 -31 68 -40 63 -36 289 -14 412 40 17 8 40 17
53 20 76 22 188 106 241 183 27 39 31 40 31 3z"/>
<path d="M3353 3328 c-21 -10 -29 -34 -23 -63 1 -5 3 -17 5 -26 7 -36 45 -106
77 -142 31 -36 34 -37 64 -26 36 14 41 43 18 94 -7 17 -22 55 -34 87 -28 75
-60 98 -107 76z"/>
<path d="M3072 3063 c2 -11 24 -23 68 -35 36 -10 92 -27 125 -39 93 -32 95
-32 95 -20 0 15 -48 38 -160 77 -108 39 -133 42 -128 17z"/>
<path d="M3532 2993 c-47 -33 -68 -138 -38 -195 14 -26 13 -29 -7 -43 -12 -8
-26 -15 -32 -15 -14 0 -55 42 -55 56 0 5 -16 22 -35 37 l-36 28 -29 -31 c-17
-18 -30 -38 -30 -45 0 -27 34 -77 74 -110 43 -35 51 -36 123 -20 17 4 25 -2
38 -27 25 -55 78 -83 152 -83 58 0 65 3 97 35 l35 35 -37 37 -36 38 -33 -20
c-45 -26 -71 -25 -82 3 -11 28 -3 77 12 77 36 0 94 43 117 86 l24 47 -67 63
c-73 69 -108 80 -155 47z m116 -114 c23 -6 42 -15 42 -20 0 -14 -101 -4 -110
11 -11 17 -2 33 13 26 7 -3 31 -10 55 -17z"/>
<path d="M3955 2939 c-64 -13 -95 -25 -107 -40 -17 -20 -17 -22 3 -50 23 -33
42 -35 133 -18 61 11 146 56 146 76 0 21 -38 53 -62 52 -13 -1 -63 -10 -113
-20z"/>
<path d="M3081 2941 c-27 -17 -4 -41 41 -42 56 -1 100 -6 170 -17 65 -10 92
-2 68 22 -22 22 -254 53 -279 37z"/>
<path d="M3850 2701 c0 -5 15 -18 33 -29 17 -11 66 -51 108 -91 62 -57 79 -68
88 -57 9 11 -1 26 -51 71 -103 93 -178 138 -178 106z"/>
<path d="M3830 2660 c0 -5 4 -10 8 -10 10 0 72 -89 102 -147 27 -53 47 -71 56
-49 7 19 -56 127 -105 179 -34 36 -61 48 -61 27z"/>
<path d="M3817 2593 c-6 -10 25 -136 46 -185 9 -21 21 -38 27 -38 20 0 21 28
2 72 -11 23 -27 67 -36 95 -17 52 -30 71 -39 56z"/>
<path d="M1307 2944 c-1 -1 -33 -5 -72 -8 -118 -11 -144 -26 -145 -82 0 -19
81 -49 160 -59 25 -3 79 -14 120 -24 50 -13 81 -16 92 -10 23 12 48 61 48 92
0 25 -27 57 -48 57 -7 0 -12 5 -12 10 0 6 -13 10 -28 10 -16 0 -32 3 -35 6 -6
6 -75 12 -80 8z"/>
<path d="M2228 2630 c-27 -31 -26 -81 3 -115 57 -70 253 -257 282 -269 27 -11
39 -11 71 1 61 21 71 43 48 103 -12 30 -114 140 -130 140 -7 0 -12 4 -12 8 0
4 -36 33 -81 62 -151 102 -153 103 -181 70z"/>
<path d="M1553 2558 c-55 -48 -158 -165 -188 -212 -11 -17 -26 -37 -33 -45
-16 -16 -72 -130 -72 -145 0 -6 -7 -24 -16 -41 -9 -16 -22 -63 -30 -103 -8
-41 -16 -78 -19 -82 -11 -18 18 -68 49 -85 26 -14 37 -15 54 -6 12 6 22 17 22
24 0 7 7 25 15 40 8 15 12 34 8 42 -3 8 -1 15 5 15 6 0 13 18 17 40 4 22 11
42 16 46 5 3 9 15 9 27 0 13 9 40 20 62 11 22 20 45 20 52 0 14 65 122 109
183 14 19 31 42 36 51 6 9 27 41 48 71 40 59 47 92 21 102 -30 11 -43 6 -91
-36z"/>
<path d="M1069 1558 c-52 -23 -59 -32 -59 -78 0 -49 39 -103 94 -129 51 -23
94 -28 173 -17 45 7 52 5 57 -11 12 -36 111 -132 158 -153 132 -58 303 -23
359 73 8 14 4 22 -17 42 -33 30 -55 31 -114 4 -29 -14 -66 -22 -105 -22 -75 0
-124 29 -175 104 -45 67 -82 92 -139 94 -25 1 -57 7 -71 13 -27 11 -64 48 -73
73 -9 26 -42 28 -88 7z"/>
</g>
</svg>
