<?xml version="1.0" standalone="no"?>
<!DOCTYPE svg PUBLIC "-//W3C//DTD SVG 20010904//EN"
 "http://www.w3.org/TR/2001/REC-SVG-20010904/DTD/svg10.dtd">
<svg version="1.0" xmlns="http://www.w3.org/2000/svg"
 width="400.000000pt" height="400.000000pt" viewBox="0 0 400.000000 400.000000"
 preserveAspectRatio="xMidYMid meet">
<metadata>
Created by potrace 1.11, written by Peter Selinger 2001-2013
</metadata>
<g transform="translate(0.000000,400.000000) scale(0.100000,-0.100000)"
fill="#000000" stroke="none">
<path d="M2146 3785 c-26 -14 -52 -25 -59 -25 -31 0 -117 -131 -117 -178 0
-40 -18 -72 -42 -72 -38 0 -237 -48 -338 -81 -201 -66 -380 -159 -648 -337
-117 -77 -143 -98 -140 -115 5 -34 45 -47 143 -47 50 0 96 -4 103 -8 8 -6 -14
-27 -70 -67 -178 -128 -428 -352 -428 -385 0 -23 41 -40 94 -40 35 0 72 15
180 71 75 38 136 66 136 60 0 -6 -20 -66 -45 -134 -25 -69 -45 -130 -45 -136
0 -6 -27 -58 -60 -114 -33 -57 -60 -109 -60 -115 0 -8 24 -12 75 -12 62 0 76
3 84 19 9 16 27 19 128 24 126 6 215 24 241 51 15 15 15 17 -1 34 -14 13 -39
18 -116 20 -54 2 -115 -1 -136 -7 -22 -6 -41 -9 -43 -7 -2 2 8 21 22 43 15 21
36 53 47 71 20 31 22 32 40 16 15 -14 21 -14 34 -4 8 7 41 13 73 14 45 1 69
-5 111 -27 29 -15 57 -24 63 -21 6 4 8 23 4 45 -4 25 -2 39 4 39 6 0 58 22
115 49 58 27 105 48 105 46 0 -2 -38 -32 -85 -66 -109 -81 -111 -105 -11 -123
34 -7 56 1 215 77 97 47 230 104 296 127 118 41 366 110 395 110 13 0 15 -34
12 -261 l-3 -261 -41 46 c-22 26 -59 56 -81 68 -80 40 -233 33 -225 -11 2 -12
19 -17 70 -21 74 -6 106 -27 173 -117 11 -15 60 -21 91 -10 20 7 22 2 34 -100
21 -187 51 -346 71 -390 11 -23 23 -57 26 -77 8 -50 23 -59 93 -54 33 2 60 1
60 -2 0 -19 -65 -234 -111 -365 -52 -151 -129 -342 -154 -381 -34 -53 -233
-145 -417 -193 -206 -53 -375 -61 -576 -25 -267 47 -579 240 -665 410 -39 78
-76 207 -88 310 -11 89 -2 279 17 389 5 29 4 30 -36 32 -22 2 -49 7 -59 13
-25 13 -28 0 -42 -167 -24 -274 42 -522 184 -693 158 -191 458 -362 738 -421
139 -29 402 -32 528 -5 77 16 211 54 254 71 29 12 20 -11 -34 -81 -41 -52 -50
-71 -42 -83 15 -24 34 -24 94 -2 75 28 207 137 295 243 41 49 74 82 74 75 0
-21 -25 -88 -66 -179 -20 -44 -33 -82 -30 -85 11 -11 74 42 138 115 35 39 105
117 156 174 98 109 161 213 238 396 21 51 40 88 42 82 2 -6 -1 -64 -7 -129
-13 -132 -7 -192 20 -217 18 -16 20 -16 38 0 66 60 192 449 238 736 14 91 18
171 18 386 0 310 -5 302 81 117 24 -52 50 -93 57 -93 41 0 62 63 78 235 23
263 -21 527 -122 725 -44 88 -71 128 -158 236 -47 60 -69 98 -85 150 -12 38
-34 88 -49 111 -16 26 -27 57 -27 78 0 53 -15 77 -45 69 -22 -5 -37 6 -113 83
-55 57 -110 103 -152 126 -82 45 -256 111 -335 127 -33 6 -93 20 -134 31 -44
11 -109 19 -156 19 -68 0 -90 -4 -129 -25z m229 -95 c3 -5 15 -10 26 -10 37 0
14 -23 -44 -44 -31 -12 -66 -29 -76 -38 -11 -9 -21 -12 -23 -7 -2 6 -17 3 -36
-6 -18 -10 -29 -21 -26 -27 4 -7 2 -8 -4 -4 -6 4 -20 2 -31 -4 -14 -7 -22 -7
-27 1 -9 16 76 89 103 89 13 0 26 7 29 15 4 8 10 12 16 9 11 -7 68 15 68 27 0
12 17 11 25 -1z m515 -135 c0 -16 -12 -18 -59 -9 -46 10 -38 24 14 24 33 0 45
-4 45 -15z m-152 -9 c3 -3 2 -9 -3 -13 -4 -5 -10 -2 -12 5 -4 10 -9 7 -20 -8
-8 -12 -21 -19 -29 -16 -8 3 -14 1 -14 -4 0 -6 -10 -10 -23 -10 -13 0 -28 -5
-34 -11 -6 -6 -26 -13 -45 -14 -18 -2 -32 -7 -31 -12 1 -5 -11 -8 -26 -5 -17
2 -32 -2 -40 -12 -8 -9 -21 -16 -31 -16 -25 0 -124 -38 -188 -72 -56 -30 -72
-34 -72 -18 0 5 36 28 81 51 45 22 92 52 105 66 13 14 24 20 24 13 0 -9 6 -8
20 5 11 10 26 15 36 11 9 -4 24 0 34 9 14 13 121 44 195 57 25 5 65 1 73 -6z
m-18 -216 c0 -5 -7 -10 -16 -10 -8 0 -12 5 -9 10 3 6 10 10 16 10 5 0 9 -4 9
-10z m51 -13 c-10 -9 -11 -8 -5 6 3 10 9 15 12 12 3 -3 0 -11 -7 -18z m-225
-43 c-22 -16 -46 -19 -46 -5 0 10 52 31 60 24 3 -3 -4 -11 -14 -19z m-309
-180 c105 -26 237 -100 358 -201 39 -33 105 -83 147 -112 94 -64 140 -114 174
-186 14 -29 34 -61 45 -71 18 -16 18 -18 1 -30 -20 -16 -80 -18 -117 -4 -15 6
-71 45 -124 88 -121 97 -180 131 -301 172 -52 18 -117 44 -145 58 -60 30 -138
102 -170 157 -24 41 -42 124 -31 150 6 17 20 15 163 -21z m428 17 c10 -17 -10
-20 -35 -5 l-25 13 27 1 c15 0 29 -4 33 -9z m67 -36 c20 1 26 -4 25 -17 -1
-10 -9 -18 -19 -18 -25 0 -69 30 -62 42 3 5 11 5 17 0 7 -4 24 -8 39 -7z m145
-85 c8 -11 20 -17 29 -13 10 4 17 -2 21 -16 3 -13 13 -21 27 -21 13 0 33 -11
45 -24 13 -13 33 -27 46 -30 13 -3 26 -14 30 -25 3 -10 14 -26 25 -36 15 -14
17 -22 9 -38 -8 -14 -8 -27 0 -45 14 -29 7 -40 -14 -22 -8 7 -15 9 -15 5 0 -4
-7 -2 -15 5 -9 7 -14 19 -11 27 3 7 -1 13 -9 13 -8 0 -15 4 -15 10 0 5 -6 7
-14 4 -14 -5 -46 20 -46 37 0 5 -12 14 -26 20 -15 5 -24 12 -20 16 8 8 -23 43
-38 43 -6 0 -2 -7 8 -15 11 -8 16 -18 12 -22 -11 -12 -36 27 -29 45 5 11 2 14
-9 10 -20 -8 -43 7 -43 29 -1 10 -6 17 -13 16 -7 -2 -12 2 -12 7 0 6 -6 10
-14 10 -17 0 -32 38 -19 50 27 26 77 8 110 -40z m159 -1503 c56 -58 91 -137
77 -174 -16 -40 -222 -197 -238 -181 -3 2 4 40 14 84 10 43 28 126 40 184 28
134 30 140 44 140 6 0 34 -24 63 -53z"/>
<path d="M1904 2035 c-8 -33 14 -62 142 -184 114 -109 180 -154 216 -149 80
11 -26 187 -175 291 -74 52 -108 67 -147 67 -23 0 -31 -5 -36 -25z"/>
<path d="M1455 1810 c-48 -18 -158 -170 -194 -265 -42 -111 -37 -209 9 -185
29 16 43 48 51 118 8 78 54 171 121 248 59 68 65 104 13 84z"/>
<path d="M1127 1286 c-56 -20 -104 -62 -112 -96 -9 -40 17 -84 75 -129 42 -31
45 -37 42 -73 -2 -23 2 -48 11 -61 40 -62 154 -104 233 -87 45 10 114 79 114
114 0 26 -48 76 -73 76 -9 0 -28 -17 -42 -39 -28 -42 -61 -61 -105 -61 -45 0
-37 22 26 78 48 43 54 53 45 70 -21 40 -58 54 -132 50 -43 -2 -68 1 -66 7 7
21 83 55 123 55 54 0 80 19 65 48 -31 58 -118 78 -204 48z"/>
</g>
</svg>
