<?xml version="1.0" encoding="UTF-8"?>
<svg id="_レイヤー_2" data-name="レイヤー 2" xmlns="http://www.w3.org/2000/svg" viewBox="0 0 825 312">
  <defs>
    <style>
      .cls-1 {
        fill: #fff;
      }

      .cls-2 {
        fill: #55c500;
      }
    </style>
  </defs>
  <g id="logo-background-color">
    <g>
      <rect class="cls-2" width="825" height="312"/>
      <g>
        <circle class="cls-1" cx="343.2" cy="90.6" r="18.42"/>
        <path class="cls-1" d="M519.41,63.43h-30.26v39.56s-20.37,0-20.37,0v28.35h20.37v57.1c0,11.16,1.42,20.29,4.25,27.41,2.84,7.11,6.68,12.71,11.54,16.8,4.86,4.1,10.57,6.91,17.15,8.44,6.57,1.53,11.04,2.3,18.51,2.3h22.74v-27h-19.64c-3.33,0-6.46-.43-9.38-1.28-2.92-.85-5.51-2.34-7.76-4.45-2.25-2.11-4.03-4.99-5.33-8.64-1.3-3.64-1.96-8.25-1.96-13.84v-56.83h44.42v-28.35h-44.28v-39.56Z"/>
        <path class="cls-1" d="M284.57,151.04c0-12.95-2.52-25.05-7.56-36.3-5.04-11.25-11.9-21.05-20.59-29.39-8.69-8.34-18.88-14.9-30.56-19.68-11.69-4.78-24.14-7.17-37.35-7.17s-25.77,2.39-37.41,7.17c-11.65,4.78-21.79,11.34-30.44,19.68-8.65,8.34-15.49,18.14-20.53,29.39-5.04,11.26-7.56,23.36-7.56,36.3s2.52,24.92,7.56,36.17c5.04,11.25,11.88,21.07,20.53,29.46,8.65,8.39,18.79,14.99,30.44,19.81,11.64,4.82,24.11,7.24,37.41,7.24,9.21,0,18.01-1.16,26.39-3.45,8.39-2.3,16.27-5.63,23.66-9.97l18.47,18.63c6.05,6.11,15.92,6.1,21.96-.02,5.97-6.04,5.94-15.78-.06-21.78l-16.64-16.64c6.95-8.08,12.4-17.16,16.36-27.24,3.95-10.08,5.93-20.81,5.93-32.19ZM247.16,176.66c-3.3,7.86-7.82,14.69-13.55,20.46-5.74,5.78-12.47,10.32-20.21,13.62-7.73,3.3-16.03,4.95-24.9,4.95s-17.01-1.65-24.7-4.95c-7.69-3.3-14.4-7.84-20.14-13.62-5.74-5.78-10.28-12.6-13.62-20.46-3.35-7.87-5.02-16.36-5.02-25.48s1.67-17.64,5.02-25.55c3.35-7.91,7.89-14.75,13.62-20.53,5.74-5.78,12.45-10.32,20.14-13.62,7.69-3.3,15.92-4.95,24.7-4.95s17.16,1.65,24.9,4.95c7.73,3.3,14.47,7.84,20.21,13.62,5.74,5.78,10.25,12.62,13.55,20.53,3.3,7.91,4.95,16.42,4.95,25.55s-1.65,17.62-4.95,25.48Z"/>
        <path class="cls-1" d="M706.4,111.05l-1.75,14.14c-2.5-2.42-5.36-4.73-8.57-6.95-3.21-2.21-6.74-4.13-10.57-5.76-3.84-1.63-7.92-2.92-12.26-3.88-4.34-.96-8.97-1.44-13.89-1.44-10.34,0-19.75,1.8-28.21,5.38-8.47,3.59-15.72,8.47-21.77,14.64-6.05,6.17-10.72,13.41-14.01,21.71-3.3,8.3-4.94,17.16-4.94,26.59s1.67,18.29,5,26.59c3.33,8.3,8.01,15.54,14.01,21.71,6.01,6.17,13.24,11.03,21.71,14.58,8.46,3.55,17.83,5.32,28.09,5.32,4.83,0,9.45-.48,13.82-1.44,4.38-.96,8.46-2.25,12.26-3.88s7.32-3.52,10.57-5.69c3.25-2.17,6.17-4.5,8.76-7.01l1.75,14.14h26.03V111.05h-26.03ZM700.15,192.44c-2.17,5.13-5.11,9.55-8.82,13.26-3.71,3.71-8.07,6.59-13.08,8.63-5,2.05-10.34,3.07-16.02,3.07s-11.14-1.02-16.14-3.07c-5.01-2.04-9.39-4.92-13.14-8.63-3.75-3.71-6.71-8.15-8.88-13.33-2.17-5.17-3.25-10.84-3.25-17.01s1.06-11.8,3.19-16.89c2.13-5.08,5.05-9.48,8.76-13.2,3.71-3.71,8.07-6.59,13.07-8.63,5.01-2.04,10.39-3.07,16.14-3.07s11.14,1.04,16.14,3.13c5.01,2.08,9.39,4.96,13.14,8.63,3.76,3.67,6.71,8.07,8.89,13.2,2.17,5.13,3.25,10.74,3.25,16.83s-1.08,11.95-3.25,17.08Z"/>
        <rect class="cls-1" x="328.36" y="129.63" width="29.67" height="110.31"/>
        <rect class="cls-1" x="402.24" y="129.63" width="29.67" height="110.31"/>
        <circle class="cls-1" cx="417.07" cy="90.6" r="18.42" transform="translate(173.76 441.26) rotate(-67.5)"/>
      </g>
    </g>
  </g>
</svg>