<?xml version="1.0" encoding="UTF-8"?>
<svg id="_レイヤー_2" data-name="レイヤー 2" xmlns="http://www.w3.org/2000/svg" viewBox="0 0 578.55 124.08">
  <defs>
    <style>
      .cls-1 {
        fill: #3ea8ff;
      }
    </style>
  </defs>
  <g id="_レイヤー_1-2" data-name="レイヤー 1">
    <g>
      <path d="M357.26,83.18h-60.19c.77,5.4,3.4,10.49,7.41,14.2,4.17,3.55,9.57,5.4,15.12,5.25,4.32,0,8.64-.77,12.65-2.62,3.86-1.7,7.41-4.32,10.03-7.72l12.65,14.66c-3.86,5.25-8.8,9.41-14.66,12.19-7.1,3.4-14.81,5.09-22.69,4.94-8.8.15-17.59-1.85-25.46-6.17-6.94-3.86-12.65-9.72-16.51-16.82s-5.86-15.12-5.71-23.3v-3.4c-.15-8.8,1.7-17.44,5.4-25.46,3.4-7.25,8.8-13.27,15.59-17.44,7.25-4.32,15.59-6.48,23.92-6.33,8.02-.15,15.9,1.7,22.99,5.71,6.33,3.86,11.42,9.57,14.51,16.2,3.4,7.87,5.09,16.2,4.94,24.85v11.27ZM331.18,63.27c.15-4.48-1.39-8.8-4.32-12.19-2.78-2.93-6.79-4.48-12.19-4.48-4.48-.15-8.95,1.7-11.88,4.94-3.09,4.01-5.09,8.8-5.56,13.89h33.95v-2.16Z"/>
      <path d="M195.68,100.31h55.71v22.69h-87.81v-16.36l55.25-83.8h-55.86V0h87.35v16.05l-54.63,84.26Z"/>
      <path d="M381.64,73.77c0-29.48,19.6-45.06,43.52-45.06s43.06,15.59,43.06,45.06v48.3h-24.69v-47.22c0-16.36-7.41-24.85-18.52-24.85s-19.14,8.49-19.14,24.85v47.38h-24.38l.15-48.46h0Z"/>
      <path d="M491.98,73.77c0-29.48,19.6-45.06,43.52-45.06s43.06,15.59,43.06,45.06v48.3h-24.69v-47.22c0-16.36-7.41-24.85-18.52-24.85s-19.14,8.49-19.14,24.85v47.38h-24.38l.15-48.46h0Z"/>
    </g>
    <path class="cls-1" d="M1.39,124.07h26.23c1.39,0,2.62-.77,3.4-1.85L103.24,3.55c.93-1.54-.15-3.4-2.01-3.4h-24.85c-1.23,0-2.31.62-2.93,1.7L.16,121.91c-.46.93.15,2.16,1.23,2.16Z"/>
    <path class="cls-1" d="M91.82,122.22l34.11-54.78c1.08-1.7-.15-3.86-2.16-3.86h-24.69c-.93,0-1.85.46-2.31,1.23l-35.03,56.02c-.93,1.39.15,3.24,1.85,3.24h25.15c1.23,0,2.47-.62,3.09-1.85Z"/>
  </g>
</svg>